<?xml version="1.0" standalone="no"?><!DOCTYPE svg PUBLIC "-//W3C//DTD SVG 1.1//EN" "http://www.w3.org/Graphics/SVG/1.1/DTD/svg11.dtd"><svg t="1542723329199" class="icon" style="" viewBox="0 0 1024 1024" version="1.1" xmlns="http://www.w3.org/2000/svg" p-id="1101" xmlns:xlink="http://www.w3.org/1999/xlink" width="200" height="200"><defs><style type="text/css"></style></defs><path d="M182.857387 768q0-14.848-10.825143-25.746286t-25.746286-10.825143q-15.433143 0-25.965714 10.825143t-10.605714 25.746286q0 15.433143 10.605714 25.965714t25.965714 10.605714q14.848 0 25.746286-10.605714t10.825143-25.965714zM274.285958 475.428571l0 365.714286q0 14.848-10.825143 25.746286t-25.746286 10.825143l-164.571429 0q-14.848 0-25.746286-10.825143t-10.825143-25.746286l0-365.714286q0-14.848 10.825143-25.746286t25.746286-10.825143l164.571429 0q14.848 0 25.746286 10.825143t10.825143 25.746286zM950.857387 475.428571q0 49.152-31.451429 85.138286 8.557714 25.161143 8.557714 43.446857 1.682286 43.446857-24.576 78.262857 9.728 32.036571 0 66.852571-8.557714 32.548571-30.866286 53.686857 5.12 64-28.013714 103.424-36.571429 43.446857-112.566857 44.544l-73.728 0q-37.741714 0-82.285714-8.850286t-69.412571-16.603429-68.827429-22.601143q-70.290286-24.576-90.258286-25.161143-14.848-0.585143-25.746286-11.117714t-10.825143-25.453714l0-366.299429q0-14.262857 10.313143-24.868571t24.576-11.702857q13.677714-1.170286 43.446857-33.718857t57.709714-69.12q38.838857-49.737143 57.709714-68.534857 10.313143-10.313143 17.700571-27.428571t10.020571-27.721143 7.68-34.596571q4.022857-22.308571 7.168-34.889143t11.117714-29.696 19.456-28.598857q10.825143-10.825143 25.746286-10.825143 26.258286 0 47.177143 5.997714t34.304 14.848 22.820571 23.113143 13.677714 25.746286 6.875429 28.598857 2.852571 25.746286 0.292571 22.308571q0 21.723429-5.412571 43.446857t-10.825143 34.304-15.725714 32.036571q-1.682286 3.437714-5.705143 10.313143t-6.290286 12.580571-4.534857 13.677714l158.281143 0q44.544 0 77.165714 32.548571t32.548571 77.165714z" p-id="1102"></path></svg>