<?xml version="1.0" standalone="no"?><!DOCTYPE svg PUBLIC "-//W3C//DTD SVG 1.1//EN" "http://www.w3.org/Graphics/SVG/1.1/DTD/svg11.dtd"><svg t="1542722693336" class="icon" style="" viewBox="0 0 1024 1024" version="1.1" xmlns="http://www.w3.org/2000/svg" p-id="1534" xmlns:xlink="http://www.w3.org/1999/xlink" width="200" height="200"><defs><style type="text/css"></style></defs><path d="M728.87 955.94h-296.91c-12.090 0-21.93-9.72-21.93-21.66s9.84-21.63 21.93-21.63h296.91c63.090 0 93.57-34.23 107.97-62.94 0.72-1.74 0.96-3.33 1.32-5.22 2.73-13.71 7.35-36.72 37.68-73.050 21.87-26.22 18.12-54.060 13.71-86.28-1.38-10.23-2.76-20.4-3.33-30.48-2.52-42.99 8.76-61.56 24.42-87.3 2.85-4.62 5.91-9.66 9.18-15.3 14.37-24.78 13.56-55.53-2.16-82.23-19.2-32.64-55.32-52.17-96.57-52.17-73.080 0-157.32 2.49-158.13 2.49-7.29 0.27-13.020-2.55-17.31-7.5-4.35-4.95-6.12-11.58-4.95-18 0.3-1.5 27.81-150.45 27.81-215.91 0-67.14-50.94-74.37-72.78-74.37-34.53 0-62.61 36.75-62.61 81.96 0 56.19 0 75.15-29.7 116.16-40.98 56.58-118.35 151.53-176.64 151.53h-36.93v480.21c0 11.97-9.84 21.66-21.93 21.66h-125.52c-45.99 0-83.43-36.93-83.43-82.32v-380.52c0-45.36 37.41-82.29 83.43-82.29h184.41c26.1 0 84.090-54.84 140.91-133.38 21.54-29.73 21.54-36.72 21.54-91.020 0-70.26 46.74-125.25 106.44-125.25 53.82 0 116.67 30.84 116.67 117.66 0 52.62-15.75 150.54-23.85 197.49 31.11-0.75 84.24-1.83 132.57-1.83 57.060 0 107.4 27.54 134.52 73.71 23.64 40.2 24.51 87.12 2.31 125.43-3.45 5.94-6.66 11.22-9.63 16.11-14.55 23.88-20.010 32.82-18.27 62.49 0.54 8.97 1.83 18.090 3.030 27.21 4.77 35.070 10.71 78.72-23.34 119.52-23.28 27.93-26.43 43.59-28.53 53.94-0.99 4.95-2.040 10.080-4.62 15.24-28.62 56.91-80.91 87.84-147.69 87.84v0zM142.4 454.070c-21.78 0-39.54 17.49-39.54 39v380.58c0 21.54 17.76 39.030 39.54 39.030h103.59v-458.61h-103.59zM142.4 454.070z" p-id="1535"></path></svg>